<svg width="50" height="53" viewBox="0 0 50 53" fill="none" xmlns="http://www.w3.org/2000/svg">
<rect width="50" height="50.641" rx="25" fill="url(#paint0_linear_9_139)"/>
<g opacity="0.25" filter="url(#filter0_f_9_139)">
<rect x="7.53271" y="25.3206" width="34.0611" height="21.5611" rx="10.7806" fill="url(#paint1_linear_9_139)"/>
</g>
<rect x="6.5" y="6.58325" width="36.8996" height="37.3726" rx="18.4498" fill="url(#paint2_linear_9_139)"/>
<g filter="url(#filter1_i_9_139)">
<path d="M19.3489 34.2619V21.7366H15.2421V34.2619H19.3494H19.3489ZM17.2964 20.0268C18.7282 20.0268 19.6196 19.065 19.6196 17.863C19.5928 16.6337 18.7282 15.6987 17.3236 15.6987C15.918 15.6987 15 16.6337 15 17.8629C15 19.0649 15.8911 20.0267 17.2695 20.0267H17.296L17.2964 20.0268ZM21.6221 34.2619H25.7287V27.268C25.7287 26.8941 25.7555 26.5193 25.864 26.2523C26.1607 25.504 26.8365 24.7295 27.9712 24.7295C29.4569 24.7295 30.0516 25.878 30.0516 27.562V34.2619H34.158V27.0803C34.158 23.2332 32.1322 21.443 29.4303 21.443C27.2151 21.443 26.2422 22.6981 25.7017 23.553H25.729V21.7371H21.6224C21.676 22.9121 21.622 34.2624 21.622 34.2624L21.6221 34.2619Z" fill="white"/>
</g>
<defs>
<filter id="filter0_f_9_139" x="2.07271" y="19.8606" width="44.9812" height="32.481" filterUnits="userSpaceOnUse" color-interpolation-filters="sRGB">
<feFlood flood-opacity="0" result="BackgroundImageFix"/>
<feBlend mode="normal" in="SourceGraphic" in2="BackgroundImageFix" result="shape"/>
<feGaussianBlur stdDeviation="2.73" result="effect1_foregroundBlur_9_139"/>
</filter>
<filter id="filter1_i_9_139" x="13.5" y="13.6731" width="22.5" height="23.2886" filterUnits="userSpaceOnUse" color-interpolation-filters="sRGB">
<feFlood flood-opacity="0" result="BackgroundImageFix"/>
<feBlend mode="normal" in="SourceGraphic" in2="BackgroundImageFix" result="shape"/>
<feColorMatrix in="SourceAlpha" type="matrix" values="0 0 0 0 0 0 0 0 0 0 0 0 0 0 0 0 0 0 127 0" result="hardAlpha"/>
<feOffset dy="0.5"/>
<feGaussianBlur stdDeviation="1.25"/>
<feComposite in2="hardAlpha" operator="arithmetic" k2="-1" k3="1"/>
<feColorMatrix type="matrix" values="0 0 0 0 0 0 0 0 0 0 0 0 0 0 0 0 0 0 0.1 0"/>
<feBlend mode="normal" in2="shape" result="effect1_innerShadow_9_139"/>
</filter>
<linearGradient id="paint0_linear_9_139" x1="4.20306" y1="3.3171" x2="41.9024" y2="50.1732" gradientUnits="userSpaceOnUse">
<stop stop-color="#FBFBFC"/>
<stop offset="1" stop-color="#DBDDE8"/>
</linearGradient>
<linearGradient id="paint1_linear_9_139" x1="26.9173" y1="47.5247" x2="19.809" y2="22.7876" gradientUnits="userSpaceOnUse">
<stop stop-color="#006699"/>
<stop offset="1" stop-color="#058CCF"/>
</linearGradient>
<linearGradient id="paint2_linear_9_139" x1="27.5" y1="45.0704" x2="9.88253" y2="6.7522" gradientUnits="userSpaceOnUse">
<stop stop-color="#006699"/>
<stop offset="1" stop-color="#058CCF"/>
</linearGradient>
</defs>
</svg>
