<svg width="50" height="53" viewBox="0 0 50 53" fill="none" xmlns="http://www.w3.org/2000/svg">
<rect width="50" height="50.641" rx="25" fill="url(#paint0_linear_9_140)"/>
<g opacity="0.25" filter="url(#filter0_f_9_140)">
<rect x="7.53271" y="25.3206" width="34.0611" height="21.5611" rx="10.7806" fill="url(#paint1_linear_9_140)"/>
</g>
<rect x="6.5" y="6.58325" width="36.8996" height="37.3726" rx="18.4498" fill="url(#paint2_linear_9_140)"/>
<g filter="url(#filter1_i_9_140)">
<path d="M26.2853 24.8553C26.2853 27.9523 23.7649 30.467 20.6426 30.467C17.5204 30.467 15 27.9523 15 24.8553C15 21.7584 17.5204 19.2437 20.6426 19.2437C23.7649 19.2437 26.2853 21.7584 26.2853 24.8553ZM32.4671 24.8553C32.4671 27.7665 31.2006 30.1325 29.6458 30.1325C28.0909 30.1325 26.8245 27.7665 26.8245 24.8553C26.8245 21.9442 28.0909 19.5781 29.6458 19.5781C31.2006 19.5781 32.4671 21.9318 32.4671 24.8553ZM35 24.8553C35 27.4691 34.5611 29.5875 34.0094 29.5875C33.4577 29.5875 33.0188 27.4691 33.0188 24.8553C33.0188 22.2415 33.4577 20.1232 34.0094 20.1232C34.5611 20.1232 35 22.2415 35 24.8553Z" fill="white"/>
</g>
<defs>
<filter id="filter0_f_9_140" x="2.07271" y="19.8606" width="44.9812" height="32.481" filterUnits="userSpaceOnUse" color-interpolation-filters="sRGB">
<feFlood flood-opacity="0" result="BackgroundImageFix"/>
<feBlend mode="normal" in="SourceGraphic" in2="BackgroundImageFix" result="shape"/>
<feGaussianBlur stdDeviation="2.73" result="effect1_foregroundBlur_9_140"/>
</filter>
<filter id="filter1_i_9_140" x="13.5" y="13.6731" width="22.5" height="23.2886" filterUnits="userSpaceOnUse" color-interpolation-filters="sRGB">
<feFlood flood-opacity="0" result="BackgroundImageFix"/>
<feBlend mode="normal" in="SourceGraphic" in2="BackgroundImageFix" result="shape"/>
<feColorMatrix in="SourceAlpha" type="matrix" values="0 0 0 0 0 0 0 0 0 0 0 0 0 0 0 0 0 0 127 0" result="hardAlpha"/>
<feOffset dy="0.5"/>
<feGaussianBlur stdDeviation="1.25"/>
<feComposite in2="hardAlpha" operator="arithmetic" k2="-1" k3="1"/>
<feColorMatrix type="matrix" values="0 0 0 0 0 0 0 0 0 0 0 0 0 0 0 0 0 0 0.1 0"/>
<feBlend mode="normal" in2="shape" result="effect1_innerShadow_9_140"/>
</filter>
<linearGradient id="paint0_linear_9_140" x1="4.20306" y1="3.3171" x2="41.9024" y2="50.1732" gradientUnits="userSpaceOnUse">
<stop stop-color="#FBFBFC"/>
<stop offset="1" stop-color="#DBDDE8"/>
</linearGradient>
<linearGradient id="paint1_linear_9_140" x1="26.9173" y1="47.5247" x2="19.809" y2="22.7876" gradientUnits="userSpaceOnUse">
<stop offset="0.0729167" stop-color="#303D4D"/>
<stop offset="0.927083" stop-color="#526378"/>
</linearGradient>
<linearGradient id="paint2_linear_9_140" x1="27.5" y1="45.0704" x2="9.88253" y2="6.7522" gradientUnits="userSpaceOnUse">
<stop offset="0.0729167"/>
<stop offset="0.927083" stop-color="#393A3D"/>
</linearGradient>
</defs>
</svg>
