<svg xmlns="http://www.w3.org/2000/svg" viewBox="0 0 128 128"><defs><style>.cls-1{fill:#3547ee;}.cls-2{fill:#fff;}</style></defs><g id="Layer_2" data-name="Layer 2"><g id="Layer_1-2" data-name="Layer 1"><path class="cls-1" d="M0,0V128H128V111.34H108.62V84.65H128V0ZM45.11,91.63v6.29H40.84v5.26a2,2,0,0,0,.52,1.49,1.68,1.68,0,0,0,1.27.53,3.34,3.34,0,0,0,1.94-.57l2.07,6a7.32,7.32,0,0,1-2.39.84,15.32,15.32,0,0,1-2.92.27,9.93,9.93,0,0,1-6.71-2.08q-2.4-2.07-2.4-6.38V97.92H29.37V91.63h2.85V85.79h8.62v5.84Zm24.25,12.73v7H48v-5.53l9.64-8.92A9.75,9.75,0,0,0,59,95.37a4.2,4.2,0,0,0,.6-1.17,3.42,3.42,0,0,0,.15-1,1.91,1.91,0,0,0-.65-1.55,3,3,0,0,0-1.94-.54,4.31,4.31,0,0,0-3.93,2.47L46.4,90.22a11.35,11.35,0,0,1,4.35-4.46A13.86,13.86,0,0,1,58,84a14.21,14.21,0,0,1,5.61,1A8.8,8.8,0,0,1,67.37,88a7.22,7.22,0,0,1,1.38,4.42,10.53,10.53,0,0,1-.33,2.6,8.63,8.63,0,0,1-1.31,2.72,19.86,19.86,0,0,1-2.94,3.18l-3.81,3.47Zm2.89,7V84.65h7.4l8.7,14.21L96.8,84.65h7.4l.07,26.69H96.08L96,99.16l-5.8,9.78h-4l-5.79-9.35v11.75Z"/><rect class="cls-1" x="117.47" y="91.44" width="10.53" height="3.12"/><rect class="cls-1" x="117.47" y="101.05" width="10.53" height="3.5"/><polygon class="cls-2" points="117.47 91.44 117.47 94.56 128 94.56 128 101.05 117.47 101.05 117.47 104.55 128 104.55 128 111.34 108.62 111.34 108.62 84.65 128 84.65 128 91.44 117.47 91.44"/><polygon class="cls-2" points="104.27 111.34 96.08 111.34 96.01 99.16 90.21 108.94 86.24 108.94 80.45 99.59 80.45 111.34 72.25 111.34 72.25 84.65 79.65 84.65 88.35 98.86 96.8 84.65 104.2 84.65 104.27 111.34"/><path class="cls-2" d="M69.36,104.36v7H48v-5.53l9.64-8.92A9.75,9.75,0,0,0,59,95.37a4.2,4.2,0,0,0,.6-1.17,3.42,3.42,0,0,0,.15-1,1.91,1.91,0,0,0-.65-1.55,3,3,0,0,0-1.94-.54,4.31,4.31,0,0,0-3.93,2.47L46.4,90.22a11.35,11.35,0,0,1,4.35-4.46A13.86,13.86,0,0,1,58,84a14.21,14.21,0,0,1,5.61,1A8.8,8.8,0,0,1,67.37,88a7.22,7.22,0,0,1,1.38,4.42,10.53,10.53,0,0,1-.33,2.6,8.63,8.63,0,0,1-1.31,2.72,19.86,19.86,0,0,1-2.94,3.18l-3.81,3.47Z"/><path class="cls-2" d="M46.64,110.61a7.32,7.32,0,0,1-2.39.84,15.32,15.32,0,0,1-2.92.27,9.93,9.93,0,0,1-6.71-2.08q-2.4-2.07-2.4-6.38V97.92H29.37V91.63h2.85V85.79h8.62v5.84h4.27v6.29H40.84v5.26a2,2,0,0,0,.52,1.49,1.68,1.68,0,0,0,1.27.53,3.34,3.34,0,0,0,1.94-.57Z"/></g></g></svg>