<svg width="50" height="53" viewBox="0 0 50 53" fill="none" xmlns="http://www.w3.org/2000/svg">
<rect width="50" height="50.641" rx="25" fill="url(#paint0_linear_9_138)"/>
<g opacity="0.25" filter="url(#filter0_f_9_138)">
<rect x="7.53271" y="25.3206" width="34.0611" height="21.5611" rx="10.7806" fill="url(#paint1_linear_9_138)"/>
</g>
<rect x="6.5" y="6.58325" width="36.8996" height="37.3726" rx="18.4498" fill="url(#paint2_linear_9_138)"/>
<g filter="url(#filter1_i_9_138)">
<path fill-rule="evenodd" clip-rule="evenodd" d="M24.7405 14.1794C18.8332 14.1794 14 19.079 14 25.0673C14 31.0556 18.8332 35.9551 24.7405 35.9551C30.6477 35.9551 35.4809 31.0556 35.4809 25.0673C35.4809 19.079 30.7014 14.1794 24.7405 14.1794ZM29.6811 29.9123C29.4663 30.239 29.0903 30.3479 28.7681 30.1301C26.2441 28.5514 23.0757 28.2247 19.3165 29.0958C18.9406 29.2046 18.6184 28.9324 18.511 28.6058C18.4036 28.2247 18.6721 27.8981 18.9943 27.7892C23.0757 26.8638 26.62 27.2448 29.4125 28.9869C29.7885 29.1502 29.8422 29.5857 29.6811 29.9123ZM30.9699 26.9182C30.7014 27.2993 30.2181 27.4626 29.8422 27.1904C26.9422 25.3939 22.5387 24.8495 19.1554 25.9383C18.7258 26.0472 18.2425 25.8294 18.1351 25.3939C18.0277 24.9584 18.2425 24.4684 18.6721 24.3596C22.5924 23.1619 27.4256 23.7607 30.7551 25.8294C31.0773 25.9927 31.2384 26.5371 30.9699 26.9182ZM31.0773 23.8696C27.6404 21.8009 21.8942 21.5832 18.6184 22.6175C18.0814 22.7808 17.5443 22.4542 17.3832 21.9642C17.2221 21.4198 17.5443 20.8755 18.0277 20.7121C21.8405 19.5689 28.1237 19.7867 32.0977 22.182C32.581 22.4542 32.7421 23.1075 32.4736 23.5974C32.2051 23.9785 31.5606 24.1418 31.0773 23.8696Z" fill="white"/>
</g>
<defs>
<filter id="filter0_f_9_138" x="2.07271" y="19.8606" width="44.9812" height="32.481" filterUnits="userSpaceOnUse" color-interpolation-filters="sRGB">
<feFlood flood-opacity="0" result="BackgroundImageFix"/>
<feBlend mode="normal" in="SourceGraphic" in2="BackgroundImageFix" result="shape"/>
<feGaussianBlur stdDeviation="2.73" result="effect1_foregroundBlur_9_138"/>
</filter>
<filter id="filter1_i_9_138" x="13.5" y="13.6731" width="22.5" height="23.2886" filterUnits="userSpaceOnUse" color-interpolation-filters="sRGB">
<feFlood flood-opacity="0" result="BackgroundImageFix"/>
<feBlend mode="normal" in="SourceGraphic" in2="BackgroundImageFix" result="shape"/>
<feColorMatrix in="SourceAlpha" type="matrix" values="0 0 0 0 0 0 0 0 0 0 0 0 0 0 0 0 0 0 127 0" result="hardAlpha"/>
<feOffset dy="0.5"/>
<feGaussianBlur stdDeviation="1.25"/>
<feComposite in2="hardAlpha" operator="arithmetic" k2="-1" k3="1"/>
<feColorMatrix type="matrix" values="0 0 0 0 0 0 0 0 0 0 0 0 0 0 0 0 0 0 0.1 0"/>
<feBlend mode="normal" in2="shape" result="effect1_innerShadow_9_138"/>
</filter>
<linearGradient id="paint0_linear_9_138" x1="4.20306" y1="3.3171" x2="41.9024" y2="50.1732" gradientUnits="userSpaceOnUse">
<stop stop-color="#FBFBFC"/>
<stop offset="1" stop-color="#DBDDE8"/>
</linearGradient>
<linearGradient id="paint1_linear_9_138" x1="26.9173" y1="47.5247" x2="19.809" y2="22.7876" gradientUnits="userSpaceOnUse">
<stop stop-color="#00D95F"/>
<stop offset="1" stop-color="#10BC4C"/>
</linearGradient>
<linearGradient id="paint2_linear_9_138" x1="27.5" y1="45.0704" x2="9.88253" y2="6.7522" gradientUnits="userSpaceOnUse">
<stop stop-color="#00D95F"/>
<stop offset="1" stop-color="#10BC4C"/>
</linearGradient>
</defs>
</svg>
