<svg width="50" height="53" viewBox="0 0 50 53" fill="none" xmlns="http://www.w3.org/2000/svg">
<rect width="50" height="50.641" rx="25" fill="url(#paint0_linear_9_137)"/>
<g opacity="0.25" filter="url(#filter0_f_9_137)">
<rect x="7.53271" y="25.3206" width="34.0611" height="21.5611" rx="10.7806" fill="url(#paint1_linear_9_137)"/>
</g>
<rect x="6.5" y="6.58325" width="36.8996" height="37.3726" rx="18.4498" fill="url(#paint2_linear_9_137)"/>
<g filter="url(#filter1_i_9_137)">
<path fill-rule="evenodd" clip-rule="evenodd" d="M29.1013 22.5119C30.4389 23.4759 32.0407 23.9909 33.6818 23.9846V20.6876C33.3591 20.6885 33.0374 20.6535 32.7223 20.5832V23.2098C31.0775 23.2128 29.4734 22.6919 28.1365 21.7207V28.5015C28.1324 29.6142 27.8314 30.705 27.2654 31.6583C26.6993 32.6116 25.8893 33.3919 24.9213 33.9163C23.9532 34.4408 22.8632 34.6899 21.7668 34.6373C20.6704 34.5846 19.6085 34.2322 18.6937 33.6174C19.5399 34.4853 20.6211 35.0791 21.8005 35.3237C22.9798 35.5683 24.2042 35.4526 25.3186 34.9913C26.433 34.53 27.3874 33.7438 28.0608 32.7323C28.7341 31.7208 29.0963 30.5295 29.1013 29.3093V22.5119ZM30.2885 19.149C29.6083 18.4016 29.1909 17.4473 29.1013 16.4345V16.0059H28.1907C28.3032 16.6496 28.5482 17.2622 28.9096 17.8037C29.271 18.3452 29.7408 18.8036 30.2885 19.149V19.149ZM20.8024 31.0072C20.4867 30.5888 20.2933 30.089 20.2441 29.5646C20.1949 29.0403 20.2919 28.5124 20.524 28.0412C20.7562 27.57 21.1141 27.1743 21.5572 26.8991C22.0003 26.624 22.5106 26.4804 23.0302 26.4848C23.3171 26.4848 23.6023 26.5292 23.8758 26.6167V23.2098C23.556 23.1669 23.2335 23.1485 22.911 23.1549V25.8035C22.2448 25.59 21.5239 25.6385 20.8914 25.9394C20.259 26.2403 19.7614 26.7715 19.4978 27.4273C19.2341 28.0831 19.2235 28.8155 19.4683 29.4788C19.713 30.1422 20.1951 30.6878 20.8186 31.0072H20.8024Z" fill="#EE1D52"/>
<path fill-rule="evenodd" clip-rule="evenodd" d="M28.136 21.6987C29.4729 22.6699 31.077 23.1908 32.7218 23.1878V20.5612C31.7847 20.3604 30.9334 19.8664 30.2879 19.149C29.7403 18.8036 29.2705 18.3452 28.9091 17.8037C28.5477 17.2622 28.3027 16.6496 28.1902 16.0059H25.7942V29.3093C25.792 29.8981 25.6079 30.4715 25.2678 30.9489C24.9277 31.4262 24.4487 31.7837 23.898 31.971C23.3473 32.1583 22.7525 32.1661 22.1972 31.9932C21.6419 31.8204 21.154 31.4756 20.8018 31.0072C20.2438 30.7218 19.7969 30.2541 19.5332 29.6796C19.2696 29.1051 19.2045 28.4573 19.3486 27.8408C19.4927 27.2242 19.8374 26.6748 20.3273 26.2813C20.8172 25.8877 21.4235 25.6729 22.0486 25.6716C22.3354 25.6725 22.6204 25.717 22.8942 25.8035V23.1549C21.7112 23.1836 20.5622 23.562 19.5883 24.2434C18.6144 24.9248 17.858 25.8796 17.4119 26.9907C16.9658 28.1018 16.8494 29.3207 17.077 30.4979C17.3046 31.675 17.8663 32.7592 18.6932 33.6174C19.6082 34.2366 20.6718 34.5927 21.7707 34.6476C22.8695 34.7026 23.9625 34.4543 24.9332 33.9294C25.9039 33.4044 26.7159 32.6223 27.2828 31.6665C27.8496 30.7106 28.1501 29.6168 28.1522 28.5015L28.136 21.6987Z" fill="white"/>
<path fill-rule="evenodd" clip-rule="evenodd" d="M32.7221 20.561V19.8521C31.8615 19.8559 31.0175 19.612 30.2882 19.1488C30.932 19.8683 31.784 20.3626 32.7221 20.561V20.561ZM28.1904 16.0056C28.1904 15.8793 28.1525 15.7474 28.1362 15.621V15.1924H24.8297V28.5013C24.8268 29.2465 24.5324 29.9601 24.011 30.4855C23.4897 31.0109 22.784 31.3052 22.0489 31.3037C21.616 31.3059 21.1888 31.2043 20.8021 31.007C21.1542 31.4753 21.6422 31.8201 22.1975 31.993C22.7528 32.1658 23.3476 32.1581 23.8983 31.9708C24.449 31.7835 24.928 31.426 25.2681 30.9486C25.6082 30.4713 25.7923 29.8979 25.7945 29.3091V16.0056H28.1904ZM22.8945 23.1492V22.3963C21.5339 22.209 20.1507 22.4943 18.9705 23.2058C17.7903 23.9173 16.8826 25.013 16.3954 26.3144C15.9082 27.6158 15.8701 29.0462 16.2874 30.3723C16.7048 31.6984 17.5529 32.8422 18.6935 33.6171C17.8729 32.757 17.3171 31.6733 17.0942 30.4982C16.8712 29.3232 16.9906 28.1078 17.4379 27.0004C17.8852 25.8931 18.641 24.9418 19.6129 24.2627C20.5848 23.5837 21.7307 23.2063 22.9108 23.1766L22.8945 23.1492Z" fill="#69C9D0"/>
</g>
<defs>
<filter id="filter0_f_9_137" x="2.07271" y="19.8606" width="44.9812" height="32.481" filterUnits="userSpaceOnUse" color-interpolation-filters="sRGB">
<feFlood flood-opacity="0" result="BackgroundImageFix"/>
<feBlend mode="normal" in="SourceGraphic" in2="BackgroundImageFix" result="shape"/>
<feGaussianBlur stdDeviation="2.73" result="effect1_foregroundBlur_9_137"/>
</filter>
<filter id="filter1_i_9_137" x="13.5" y="13.6731" width="22.5" height="23.2886" filterUnits="userSpaceOnUse" color-interpolation-filters="sRGB">
<feFlood flood-opacity="0" result="BackgroundImageFix"/>
<feBlend mode="normal" in="SourceGraphic" in2="BackgroundImageFix" result="shape"/>
<feColorMatrix in="SourceAlpha" type="matrix" values="0 0 0 0 0 0 0 0 0 0 0 0 0 0 0 0 0 0 127 0" result="hardAlpha"/>
<feOffset dy="0.5"/>
<feGaussianBlur stdDeviation="1.25"/>
<feComposite in2="hardAlpha" operator="arithmetic" k2="-1" k3="1"/>
<feColorMatrix type="matrix" values="0 0 0 0 0 0 0 0 0 0 0 0 0 0 0 0 0 0 0.1 0"/>
<feBlend mode="normal" in2="shape" result="effect1_innerShadow_9_137"/>
</filter>
<linearGradient id="paint0_linear_9_137" x1="4.20306" y1="3.3171" x2="41.9024" y2="50.1732" gradientUnits="userSpaceOnUse">
<stop stop-color="#FBFBFC"/>
<stop offset="1" stop-color="#DBDDE8"/>
</linearGradient>
<linearGradient id="paint1_linear_9_137" x1="8.22502" y1="25.3206" x2="23.5447" y2="55.6198" gradientUnits="userSpaceOnUse">
<stop/>
<stop offset="1" stop-color="#323232"/>
</linearGradient>
<linearGradient id="paint2_linear_9_137" x1="7.25" y1="6.58325" x2="39.4952" y2="46.4422" gradientUnits="userSpaceOnUse">
<stop/>
<stop offset="1" stop-color="#323232"/>
</linearGradient>
</defs>
</svg>
